<svg width="13" height="7" viewBox="0 0 13 7" fill="none" xmlns="http://www.w3.org/2000/svg">
<path d="M1.30644 0.920743L6.21979 5.24356C6.32699 5.33836 6.4717 5.39154 6.6225 5.39154C6.7733 5.39154 6.91801 5.33836 7.02522 5.24356L11.9386 0.921681C12.0464 0.826923 12.1916 0.773827 12.3429 0.773827C12.4941 0.773827 12.6393 0.826923 12.7471 0.921681C12.8003 0.967972 12.8425 1.0233 12.8713 1.0844C12.9001 1.14551 12.915 1.21115 12.915 1.27746C12.915 1.34378 12.9001 1.40942 12.8713 1.47052C12.8425 1.53163 12.8003 1.58695 12.7471 1.63324L7.83485 5.95512C7.51129 6.23911 7.07595 6.39822 6.6225 6.39822C6.16905 6.39822 5.73372 6.23911 5.41016 5.95512L0.497864 1.63324C0.444586 1.58694 0.402236 1.53155 0.373317 1.47036C0.344398 1.40917 0.329498 1.34342 0.329498 1.27699C0.329498 1.21057 0.344398 1.14482 0.373317 1.08363C0.402236 1.02244 0.444586 0.967049 0.497864 0.920743C0.605733 0.825985 0.750918 0.772889 0.902153 0.772889C1.05339 0.772889 1.19857 0.825985 1.30644 0.920743Z" fill="black"/>
</svg>
