<svg width="125" height="36" viewBox="0 0 125 36" fill="none" xmlns="http://www.w3.org/2000/svg">
<path d="M18.0381 1.74255C27.1508 1.74255 34.5381 9.12987 34.5381 18.2426C34.5381 27.3552 27.1508 34.7426 18.0381 34.7426C8.9254 34.7426 1.53809 27.3552 1.53809 18.2426C1.53809 9.12987 8.9254 1.74255 18.0381 1.74255Z" stroke="#0FA958" stroke-width="1.9472"/>
<path d="M31.6284 18.2426C31.6284 10.7367 25.5437 4.65198 18.0379 4.65198C10.532 4.65198 4.44727 10.7367 4.44727 18.2426C4.44727 25.7484 10.532 31.8331 18.0379 31.8331C25.5437 31.8331 31.6284 25.7484 31.6284 18.2426Z" fill="#0FA958"/>
<path d="M12.7645 19.898C12.7645 20.2106 12.8197 20.5045 12.9302 20.7797C13.0407 21.0423 13.1881 21.2736 13.3723 21.4738C13.5688 21.6738 13.796 21.8301 14.0539 21.9427C14.3241 22.0552 14.6127 22.1115 14.9197 22.1115C15.2144 22.1115 15.4908 22.0552 15.7486 21.9427C16.0188 21.8301 16.246 21.6738 16.4302 21.4738C16.6267 21.2736 16.7803 21.0423 16.8907 20.7797C17.0136 20.5171 17.075 20.2356 17.075 19.9355C17.075 19.6354 17.0136 19.354 16.8907 19.0914C16.7803 18.8163 16.6267 18.5786 16.4302 18.3785C16.246 18.1785 16.0188 18.0222 15.7486 17.9096C15.4908 17.7971 15.2144 17.7408 14.9197 17.7408C14.6127 17.7408 14.3241 17.7971 14.0539 17.9096C13.796 18.0222 13.5688 18.1785 13.3723 18.3785C13.1881 18.5786 13.0407 18.81 12.9302 19.0726C12.8197 19.3227 12.7645 19.5979 12.7645 19.898ZM16.9644 15.1146H20.317V24.7377H16.9644V23.6685C16.2521 24.5814 15.2881 25.0379 14.0724 25.0379C13.3846 25.0379 12.7521 24.9128 12.175 24.6627C11.5978 24.4001 11.0943 24.0374 10.6644 23.5747C10.2346 23.1119 9.89692 22.568 9.65125 21.9427C9.41793 21.3174 9.30127 20.6359 9.30127 19.898C9.30127 19.2102 9.41793 18.5598 9.65125 17.9471C9.88466 17.3218 10.21 16.7778 10.6276 16.3151C11.0451 15.8524 11.5425 15.4897 12.1197 15.2271C12.6969 14.952 13.3355 14.8144 14.0355 14.8144C15.2144 14.8144 16.1907 15.2334 16.9644 16.0713V15.1146ZM24.6307 15.1146V24.7377H21.2965V15.1146H24.6307ZM21.0755 11.4191C21.0755 11.1565 21.1246 10.9127 21.2229 10.6876C21.3211 10.4499 21.4562 10.2436 21.6281 10.0685C21.8 9.89347 21.9966 9.75586 22.2176 9.65584C22.4509 9.55575 22.6965 9.50574 22.9545 9.50574C23.2123 9.50574 23.4518 9.55575 23.6728 9.65584C23.9062 9.75586 24.1088 9.89347 24.2807 10.0685C24.4527 10.2436 24.5878 10.4499 24.686 10.6876C24.7843 10.9127 24.8334 11.1565 24.8334 11.4191C24.8334 11.6818 24.7843 11.9319 24.686 12.1694C24.5878 12.3946 24.4527 12.5947 24.2807 12.7698C24.1088 12.9448 23.9062 13.0824 23.6728 13.1824C23.4518 13.2825 23.2123 13.3325 22.9545 13.3325C22.6965 13.3325 22.4509 13.2825 22.2176 13.1824C21.9966 13.0824 21.8 12.9448 21.6281 12.7698C21.4562 12.5947 21.3211 12.3946 21.2229 12.1694C21.1246 11.9319 21.0755 11.6818 21.0755 11.4191Z" fill="white"/>
<path d="M60.7057 18.6971C60.7057 20.1247 60.4351 21.3391 59.8939 22.3406C59.357 23.342 58.624 24.1069 57.695 24.6353C56.7703 25.1595 55.7306 25.4215 54.5757 25.4215C53.4124 25.4215 52.3683 25.1573 51.4436 24.6289C50.5189 24.1005 49.7881 23.3356 49.2512 22.3342C48.7142 21.3328 48.4458 20.1204 48.4458 18.6971C48.4458 17.2695 48.7142 16.0551 49.2512 15.0536C49.7881 14.0522 50.5189 13.2894 51.4436 12.7653C52.3683 12.2369 53.4124 11.9727 54.5757 11.9727C55.7306 11.9727 56.7703 12.2369 57.695 12.7653C58.624 13.2894 59.357 14.0522 59.8939 15.0536C60.4351 16.0551 60.7057 17.2695 60.7057 18.6971ZM57.8996 18.6971C57.8996 17.7724 57.7611 16.9926 57.4841 16.3576C57.2114 15.7227 56.8257 15.2411 56.3271 14.913C55.8286 14.5849 55.2448 14.4208 54.5757 14.4208C53.9067 14.4208 53.3229 14.5849 52.8243 14.913C52.3257 15.2411 51.9379 15.7227 51.661 16.3576C51.3882 16.9926 51.2519 17.7724 51.2519 18.6971C51.2519 19.6218 51.3882 20.4016 51.661 21.0366C51.9379 21.6715 52.3257 22.1531 52.8243 22.4812C53.3229 22.8093 53.9067 22.9734 54.5757 22.9734C55.2448 22.9734 55.8286 22.8093 56.3271 22.4812C56.8257 22.1531 57.2114 21.6715 57.4841 21.0366C57.7611 20.4016 57.8996 19.6218 57.8996 18.6971ZM62.3448 28.9244V15.4244H65.0295V17.0735H65.1509C65.2702 16.8093 65.4428 16.5408 65.6687 16.2681C65.8988 15.9911 66.1971 15.761 66.5636 15.5778C66.9343 15.3903 67.3945 15.2965 67.9442 15.2965C68.6602 15.2965 69.3207 15.484 69.9258 15.859C70.5309 16.2298 71.0146 16.7901 71.3768 17.5401C71.739 18.2859 71.9201 19.2212 71.9201 20.3462C71.9201 21.4414 71.7432 22.3661 71.3896 23.1204C71.0401 23.8704 70.5629 24.4393 69.9577 24.8271C69.3569 25.2106 68.6836 25.4024 67.9379 25.4024C67.4094 25.4024 66.9599 25.315 66.5891 25.1403C66.2227 24.9656 65.9222 24.7461 65.6879 24.4819C65.4535 24.2134 65.2745 23.9428 65.1509 23.6701H65.0678V28.9244H62.3448ZM65.0103 20.3335C65.0103 20.9173 65.0913 21.4265 65.2532 21.8612C65.4151 22.2958 65.6495 22.6346 65.9563 22.8775C66.2631 23.1161 66.636 23.2355 67.0749 23.2355C67.5181 23.2355 67.8931 23.114 68.1999 22.8711C68.5067 22.6239 68.739 22.283 68.8967 21.8484C69.0586 21.4095 69.1396 20.9045 69.1396 20.3335C69.1396 19.7667 69.0607 19.2681 68.9031 18.8377C68.7454 18.4073 68.5131 18.0707 68.2063 17.8278C67.8995 17.5849 67.5224 17.4634 67.0749 17.4634C66.6317 17.4634 66.2567 17.5806 65.9499 17.815C65.6474 18.0494 65.4151 18.3818 65.2532 18.8122C65.0913 19.2426 65.0103 19.7497 65.0103 20.3335ZM77.8499 25.4343C76.8399 25.4343 75.9706 25.2298 75.2419 24.8207C74.5175 24.4073 73.9592 23.8235 73.5672 23.0693C73.1752 22.3107 72.9791 21.4137 72.9791 20.3782C72.9791 19.3683 73.1752 18.4819 73.5672 17.7191C73.9592 16.9563 74.5111 16.3619 75.2227 15.9357C75.9386 15.5096 76.7781 15.2965 77.7412 15.2965C78.3889 15.2965 78.9919 15.4009 79.5502 15.6097C80.1127 15.8143 80.6027 16.1232 81.0203 16.5366C81.4422 16.9499 81.7703 17.4698 82.0047 18.0962C82.2391 18.7184 82.3563 19.4471 82.3563 20.2823V21.0302H74.0658V19.3427H79.7931C79.7931 18.9507 79.7078 18.6033 79.5374 18.3008C79.3669 17.9982 79.1304 17.7617 78.8279 17.5913C78.5296 17.4166 78.1823 17.3292 77.7859 17.3292C77.3726 17.3292 77.0061 17.4251 76.6865 17.6168C76.3712 17.8043 76.124 18.0579 75.945 18.3775C75.7661 18.6928 75.6744 19.0444 75.6702 19.4322V21.0366C75.6702 21.5224 75.7597 21.9421 75.9386 22.2958C76.1219 22.6495 76.3797 22.9222 76.7121 23.114C77.0445 23.3058 77.4386 23.4016 77.8946 23.4016C78.1972 23.4016 78.4742 23.359 78.7256 23.2738C78.977 23.1886 79.1922 23.0607 79.3712 22.8903C79.5502 22.7198 79.6865 22.511 79.7803 22.2639L82.2987 22.4301C82.1709 23.0352 81.9088 23.5636 81.5125 24.0153C81.1205 24.4627 80.6134 24.8122 79.9912 25.0636C79.3733 25.3107 78.6595 25.4343 77.8499 25.4343ZM86.4963 19.5664V25.2426H83.7732V15.4244H86.3684V17.1566H86.4835C86.7008 16.5856 87.0652 16.1339 87.5765 15.8015C88.0879 15.4649 88.7079 15.2965 89.4366 15.2965C90.1184 15.2965 90.7129 15.4457 91.22 15.744C91.7271 16.0423 92.1213 16.4684 92.4025 17.0224C92.6838 17.5721 92.8244 18.2283 92.8244 18.9911V25.2426H90.1014V19.4769C90.1056 18.8761 89.9522 18.4073 89.6411 18.0707C89.3301 17.7298 88.9018 17.5593 88.3563 17.5593C87.9899 17.5593 87.666 17.6382 87.3848 17.7958C87.1078 17.9535 86.8904 18.1836 86.7328 18.4862C86.5794 18.7845 86.5005 19.1445 86.4963 19.5664ZM96.918 25.2426H93.9521L98.4713 12.1516H102.038L106.551 25.2426H103.585L100.306 15.1431H100.204L96.918 25.2426ZM96.7327 20.097H103.738V22.2575H96.7327V20.097ZM115.832 16.3832C115.742 16.0721 115.616 15.7972 115.455 15.5586C115.293 15.3157 115.094 15.1112 114.86 14.945C114.63 14.7745 114.366 14.6445 114.067 14.5551C113.773 14.4656 113.447 14.4208 113.089 14.4208C112.42 14.4208 111.832 14.587 111.325 14.9194C110.822 15.2518 110.43 15.7355 110.149 16.3704C109.868 17.0011 109.727 17.7724 109.727 18.6843C109.727 19.5962 109.866 20.3718 110.143 21.011C110.42 21.6502 110.812 22.1382 111.319 22.4748C111.826 22.8072 112.425 22.9734 113.115 22.9734C113.741 22.9734 114.276 22.8626 114.719 22.641C115.167 22.4151 115.508 22.0977 115.742 21.6886C115.981 21.2795 116.1 20.7958 116.1 20.2376L116.663 20.3207H113.288V18.2369H118.766V19.886C118.766 21.0366 118.523 22.0252 118.037 22.8519C117.551 23.6744 116.882 24.3093 116.03 24.7568C115.178 25.1999 114.202 25.4215 113.102 25.4215C111.875 25.4215 110.797 25.1509 109.868 24.6097C108.939 24.0643 108.214 23.2908 107.695 22.2894C107.179 21.2837 106.921 20.0906 106.921 18.7099C106.921 17.6488 107.075 16.7028 107.381 15.8718C107.692 15.0366 108.127 14.3292 108.685 13.7497C109.244 13.1701 109.893 12.7291 110.635 12.4265C111.376 12.1239 112.18 11.9727 113.045 11.9727C113.786 11.9727 114.477 12.0813 115.116 12.2987C115.755 12.5117 116.322 12.8143 116.816 13.2063C117.315 13.5984 117.722 14.065 118.037 14.6062C118.352 15.1431 118.555 15.7355 118.644 16.3832H115.832ZM123.252 12.1516V25.2426H120.485V12.1516H123.252Z" fill="black"/>
</svg>
